<?xml version="1.0" encoding="utf-8"?>
<!-- Generator: Adobe Illustrator 17.1.0, SVG Export Plug-In . SVG Version: 6.00 Build 0)  -->
<!DOCTYPE svg PUBLIC "-//W3C//DTD SVG 1.1//EN" "http://www.w3.org/Graphics/SVG/1.1/DTD/svg11.dtd">
<svg version="1.1" id="Layer_1" xmlns="http://www.w3.org/2000/svg" xmlns:xlink="http://www.w3.org/1999/xlink" x="0px" y="0px"
	 viewBox="0 0 841.9 497.3" enable-background="new 0 0 841.9 497.3" xml:space="preserve">
<g>
	<path fill="#FFFFFF" d="M257,260c0-8.8-5.8-13.3-17.5-13.3h-7.1v47.3h6.1v-20.4h0.6l14,20.4h7.5l-14.8-20.9
		C252.6,272.3,257,267.3,257,260z M238.6,252.5h1c6,0,11.3,0.6,11.3,7.9c0,6.9-5.8,7.9-11.3,7.9h-1V252.5z"/>
	<rect x="103.7" y="246.8" fill="#FFFFFF" width="6.1" height="47.3"/>
	<path fill="#FFFFFF" d="M175.7,246c-13.6,0-24.6,11.1-24.6,24.6c0,13.5,11.1,24.2,24.6,24.2c5,0,10-1.7,14-4.6l0.2-0.2v-7.9
		l-0.8,0.8c-3.8,3.8-8.8,6-13.6,6c-10,0-18.3-8.6-18.3-18.6c0-10,8.3-18.6,18.3-18.6c5,0,10.2,2.1,13.8,6l0.8,0.8v-7.9l-0.2-0.2
		C185.7,247.6,181.1,246,175.7,246z"/>
	<polygon fill="#FFFFFF" points="52.7,244.5 36.2,282.3 19.9,244.5 18.9,244.7 9.5,294.3 15.7,294.3 21.4,263.7 36.2,296.7 
		51.2,263.7 57,294.3 63.1,294.3 53.7,244.7 	"/>
	<path fill="#FFFFFF" d="M321.6,246c-13.6,0-24.6,11-24.6,24.6c0,13.5,11.1,24.4,24.6,24.4s24.6-11,24.6-24.4
		C346.2,257,335.2,246,321.6,246z M321.6,289.3c-10.2,0-18.4-8.5-18.4-18.6c0-10.2,8.3-18.6,18.4-18.6s18.4,8.5,18.4,18.6
		C340,280.8,331.8,289.3,321.6,289.3z"/>
	<polygon fill="#FFFFFF" points="707.1,294.3 732.1,294.3 732.1,288.5 713.2,288.5 713.2,271.2 731.7,271.2 731.7,265.4 
		713.2,265.4 713.2,252.5 732.1,252.5 732.1,246.8 707.1,246.8 	"/>
	<path fill="#FFFFFF" d="M789.3,266.8l-3.1-1.3c-3.1-1.3-6.9-3.1-6.9-6.7c0-3.8,3.1-6.7,7.3-6.7c3.5,0,5.6,1.3,7.5,4.8l0.2,0.4
		l5-3.1l-0.2-0.4c-2.5-4.8-7.1-7.5-12.5-7.5c-7.7,0-13.5,5.2-13.5,12.3c0,6.9,5.2,10,10.4,12.3l3.1,1.3c4.2,1.9,8.1,3.7,8.1,8.6
		c0,4.8-4,8.6-9,8.6c-4.4,0-8.1-3.5-8.8-8.3v-0.6l-6,1.7v0.4c1.5,7.5,7.3,12.3,15,12.3c8.5,0,15-6.5,15-14.8
		C800.9,272.3,795.1,269.3,789.3,266.8z"/>
	<polygon fill="#FFFFFF" points="656.9,282 620.8,244.1 620.8,294.3 627,294.3 627,259.1 663.1,296.9 663.1,246.8 656.9,246.8 	"/>
	<path fill="#FFFFFF" d="M407.7,249.5c-3.5-2.3-7.5-2.5-11.7-2.5h-8.1v47.3h6.1v-20.4h3.3c3.5,0,7.9-0.4,11.3-3.3
		c2.9-2.3,4.6-6.3,4.6-10.4C413.1,255.8,411.1,251.8,407.7,249.5z M394,252.5h1.3c6.1,0,11.7,0.6,11.7,7.7c0,5.4-3.3,7.9-10.2,7.9
		H394L394,252.5L394,252.5z"/>
	<path fill="#FFFFFF" d="M554.5,246c-13.6,0-24.6,11-24.6,24.6c0,13.5,11.1,24.4,24.6,24.4s24.6-11,24.6-24.4
		C579.1,257,568,246,554.5,246z M554.5,289.3c-10.2,0-18.4-8.5-18.4-18.6c0-10.2,8.3-18.6,18.4-18.6c10.2,0,18.4,8.5,18.4,18.6
		C573,280.8,564.7,289.3,554.5,289.3z"/>
	<polygon fill="#FFFFFF" points="482.1,265.6 459.2,265.6 459.2,246.8 453,246.8 453,294.3 459.2,294.3 459.2,271.4 482.1,271.4 
		482.1,294.3 488.2,294.3 488.2,246.8 482.1,246.8 	"/>
</g>
<g>
	<path fill="#FFFFFF" d="M187.8,74.2c0-39.4-38.8-63.6-74.9-63.6H8v208.7h62.8V118.4l48.4,99.2l0.8,1.5h71.3l-49.8-87.8
		C170.2,123.2,187.8,101.5,187.8,74.2z M70.8,40.8h18.4c20,0,34,14.2,34,34.4c0,29.2-16.7,35-45.7,35h-6.9V40.8H70.8z"/>
	<polygon fill="#FFFFFF" points="725,186.1 725,128.8 793.4,128.8 793.4,95.5 725,95.5 725,44 797,44 797,10.6 662.3,10.6 
		662.3,219.3 800.9,219.3 800.9,186.1 	"/>
	<path fill="#FFFFFF" d="M533.4,10.6h-92.4v208.7h101.9c62.5,0,102.8-39.4,102.8-100.5C645.4,56.1,598.3,10.6,533.4,10.6z
		 M580.6,110.5c0,38.8-15.4,80.1-58.8,80.1h-20.9V39.2h18.8C561.8,39.2,580.6,75,580.6,110.5z"/>
	<path fill="#FFFFFF" d="M418.8,24.6L401.3,7.1l-21.5,21.5C361,13.9,336.8,5,310.3,5C248,5,199.4,53.3,199.4,115
		c0,26.7,9.2,50.9,24.6,69.8l-21.1,21.1l17.5,17.5l21.3-21.3c18.8,14.4,42.5,23.1,68.6,23.1c62.3,0,110.9-48.2,110.9-109.9
		c0-26.3-8.8-50.2-23.8-68.8L418.8,24.6z M310.4,32.3c19.4,0,30.7,12.7,37.3,28.6l-81.5,81.5c-1.5-10.4-1.9-20.4-1.9-27.5
		C264.3,90.2,268.9,32.3,310.4,32.3z M354.6,88.8c1.3,10,1.7,19.2,1.7,26.1c0,24.8-4.4,82.6-46.1,82.6c-19,0-30.2-12.1-36.9-27.7
		L354.6,88.8z"/>
</g>
<path fill="#FFFFFF" d="M822.2,28.5c6.5,0,11.7-5.4,11.7-11.9s-5.4-11.9-11.7-11.9c-6.5,0-11.9,5.4-11.9,11.9S815.7,28.5,822.2,28.5
	L822.2,28.5z M832.4,16.8c0,5.8-4.4,10.4-10.2,10.4c-5.8,0-10.2-4.6-10.2-10.4s4.4-10.4,10.2-10.4C828,6.4,832.4,11,832.4,16.8
	L832.4,16.8z M819.3,17.5h3.1l4,6.1h2.1l-4.2-6.1c1.9-0.4,3.5-1.5,3.5-4s-1.3-3.8-4.6-3.8h-5.4v14h1.5L819.3,17.5L819.3,17.5z
	 M819.3,16v-5h3.5c1.7,0,3.3,0.4,3.3,2.3c0,2.5-2.1,2.5-4.2,2.5h-2.5V16z"/>
<circle fill="#B4975A" cx="402.5" cy="417" r="74.2"/>
</svg>
